<svg viewBox="0 0 32 32" xmlns="http://www.w3.org/2000/svg" class="location-icon text-blue-500 dark:text-yellow-400" fill="none" stroke="currentColor" stroke-width="1.5">
  <style>
    .ring {
      fill: none;
      stroke-width: 3;
      transform-origin: 50% 80%;
      animation: ripple 2s infinite ease-out, colorChangeLight 2s infinite ease-out;
    }

    /* Dark mode override using Tailwind's dark: selector */
    .dark .location-icon .ring {
      animation: ripple 2s infinite ease-out, colorChangeDark 2s infinite ease-out;
    }

    /* Ripple animation */
    @keyframes ripple {
      0% { transform: scale(0); opacity: 1; }
      100% { transform: scale(1); opacity: 0; }
    }

    /* Light mode color animation */
    @keyframes colorChangeLight {
      0% { stroke: #3b82f6; } /* Blue */
      50% { stroke: #22c55e; } /* Green */
      100% { stroke: #3b82f6; }
    }

    /* Dark mode color animation */
    @keyframes colorChangeDark {
      0% { stroke: #facc15; } /* Yellow */
      50% { stroke: #f87171; } /* Red */
      100% { stroke: #facc15; }
    }

    /* Animation delays for ripple rings */
    .ring:nth-of-type(2) { animation-delay: 0.5s, 0.5s; }
    .ring:nth-of-type(3) { animation-delay: 1s, 1s; }
    .ring:nth-of-type(4) { animation-delay: 1.5s, 1.5s; }
  </style>

  <!-- Main icon -->
  <g stroke="none" transform="translate(6 4) scale(0.6)">
    <path d="M16.114-0.011c-6.559 0-12.114 5.587-12.114 12.204 0 6.93 6.439 14.017 10.77 18.998 0.017 0.020 0.717 0.797 1.579 0.797h0.076c0.863 0 1.558-0.777 1.575-0.797 4.064-4.672 10-12.377 10-18.998 0-6.618-4.333-12.204-11.886-12.204zM16.515 29.849c-0.035 0.035-0.086 0.074-0.131 0.107-0.046-0.032-0.096-0.072-0.133-0.107l-0.523-0.602c-4.106-4.71-9.729-11.161-9.729-17.055 0-5.532 4.632-10.205 10.114-10.205 6.829 0 9.886 5.125 9.886 10.205 0 4.474-3.192 10.416-9.485 17.657zM16.035 6.044c-3.313 0-6 2.686-6 6s2.687 6 6 6 6-2.687 6-6-2.686-6-6-6zM16.035 16.044c-2.206 0-4.046-1.838-4.046-4.044s1.794-4 4-4c2.207 0 4 1.794 4 4 0.001 2.206-1.747 4.044-3.954 4.044z" fill="currentColor"/>
  </g>

  <!-- Ripple rings with size and color animation -->
  <ellipse class="ring" cx="16" cy="25" rx="15" ry="5" />
  <ellipse class="ring" cx="16" cy="25" rx="15" ry="5" />
  <ellipse class="ring" cx="16" cy="25" rx="15" ry="5" />
</svg>
